<svg xmlns="http://www.w3.org/2000/svg" xmlns:xlink="http://www.w3.org/1999/xlink" width="46" zoomAndPan="magnify" viewBox="0 0 34.5 34.5" height="46" preserveAspectRatio="xMidYMid meet" version="1.0"><defs><g/></defs><g fill="#000000" fill-opacity="1"><g transform="translate(1.421816, 28.547492)"><g><path d="M 32.28125 1.390625 C 31.351562 2.390625 30.269531 2.890625 29.03125 2.890625 C 27.488281 2.890625 25.628906 2.34375 23.453125 1.25 C 21.285156 0.15625 19.40625 -1.128906 17.8125 -2.609375 C 16.21875 -4.085938 15.421875 -5.351562 15.421875 -6.40625 L 15.421875 -9.453125 C 15.296875 -9.316406 15.09375 -9.125 14.8125 -8.875 L 7.40625 -2.28125 C 6.8125 -1.757812 6.316406 -1.382812 5.921875 -1.15625 C 5.523438 -0.925781 5.160156 -0.8125 4.828125 -0.8125 C 4.234375 -0.8125 3.550781 -1.0625 2.78125 -1.5625 C 2.007812 -2.0625 1.210938 -2.75 0.390625 -3.625 L 1.15625 -4.671875 C 1.3125 -4.460938 1.515625 -4.289062 1.765625 -4.15625 C 2.023438 -4.03125 2.285156 -3.96875 2.546875 -3.96875 C 3.003906 -3.96875 3.554688 -4.210938 4.203125 -4.703125 L 8.796875 -8.484375 C 7.710938 -8.972656 6.648438 -9.628906 5.609375 -10.453125 C 4.566406 -11.273438 3.722656 -12.128906 3.078125 -13.015625 C 2.441406 -13.898438 2.125 -14.675781 2.125 -15.34375 L 2.125 -22.359375 L -0.546875 -22.359375 L -0.546875 -26.5625 L 15.765625 -26.5625 L 19.9375 -22.359375 L 19.9375 -3.734375 C 19.9375 -3.253906 20.289062 -2.6875 21 -2.03125 C 21.707031 -1.375 22.546875 -0.804688 23.515625 -0.328125 C 24.492188 0.148438 25.316406 0.390625 25.984375 0.390625 C 26.421875 0.390625 26.84375 0.269531 27.25 0.03125 C 27.664062 -0.195312 28.019531 -0.53125 28.3125 -0.96875 Z M 22.171875 -22.359375 L 18.125 -26.5625 L 24.296875 -26.5625 L 24.296875 -22.359375 Z M 6.59375 -12.65625 C 6.59375 -12.0625 6.816406 -11.554688 7.265625 -11.140625 C 7.710938 -10.734375 8.257812 -10.53125 8.90625 -10.53125 C 9.9375 -10.53125 11.03125 -10.929688 12.1875 -11.734375 C 13.34375 -12.546875 14.421875 -13.671875 15.421875 -15.109375 L 15.421875 -22.359375 L 6.59375 -22.359375 Z M 6.59375 -12.65625 "/></g></g></g></svg>