<svg xmlns="http://www.w3.org/2000/svg" xmlns:xlink="http://www.w3.org/1999/xlink" width="1080" zoomAndPan="magnify" viewBox="0 0 810 809.999993" height="1080" preserveAspectRatio="xMidYMid meet" version="1.0"><defs><g/><clipPath id="e5ded46f98"><path d="M 596.222656 4.386719 L 632.996094 4.386719 L 632.996094 158.5625 L 596.222656 158.5625 Z M 596.222656 4.386719 " clip-rule="nonzero"/></clipPath><clipPath id="7a39ab29e2"><path d="M 650.855469 4.386719 L 687.625 4.386719 L 687.625 158.5625 L 650.855469 158.5625 Z M 650.855469 4.386719 " clip-rule="nonzero"/></clipPath><clipPath id="6aab881c03"><path d="M 710.613281 4.386719 L 747.386719 4.386719 L 747.386719 158.5625 L 710.613281 158.5625 Z M 710.613281 4.386719 " clip-rule="nonzero"/></clipPath></defs><g clip-path="url(#e5ded46f98)"><path fill="#000000" d="M 596.222656 4.386719 L 632.996094 4.386719 L 632.996094 158.503906 L 596.222656 158.503906 Z M 596.222656 4.386719 " fill-opacity="1" fill-rule="nonzero"/></g><g fill="#000000" fill-opacity="1"><g transform="translate(44.659721, 130.900667)"><g><path d="M 13.625 -76.796875 C 17.34375 -76.796875 21.28125 -76.539062 25.4375 -76.03125 C 29.601562 -75.519531 33.632812 -74.523438 37.53125 -73.046875 C 41.4375 -71.578125 44.972656 -69.4375 48.140625 -66.625 C 51.304688 -63.8125 53.832031 -60.113281 55.71875 -55.53125 C 57.613281 -50.957031 58.5625 -45.25 58.5625 -38.40625 C 58.5625 -31.8125 57.628906 -26.253906 55.765625 -21.734375 C 53.910156 -17.222656 51.414062 -13.546875 48.28125 -10.703125 C 45.144531 -7.859375 41.609375 -5.648438 37.671875 -4.078125 C 33.742188 -2.515625 29.710938 -1.441406 25.578125 -0.859375 C 21.453125 -0.285156 17.46875 0 13.625 0 L 1.0625 0 C 0.351562 0 0 -0.285156 0 -0.859375 L 0 -31.015625 L 14.6875 -31.015625 L 14.6875 -14.109375 C 16.539062 -14.046875 18.710938 -14.09375 21.203125 -14.25 C 23.703125 -14.414062 26.265625 -14.894531 28.890625 -15.6875 C 31.515625 -16.488281 33.960938 -17.753906 36.234375 -19.484375 C 38.503906 -21.210938 40.328125 -23.613281 41.703125 -26.6875 C 43.085938 -29.757812 43.78125 -33.664062 43.78125 -38.40625 C 43.78125 -44.476562 42.515625 -49.351562 39.984375 -53.03125 C 37.453125 -56.71875 33.992188 -59.34375 29.609375 -60.90625 C 25.234375 -62.476562 20.257812 -63.101562 14.6875 -62.78125 L 14.6875 -45.796875 L 0 -45.796875 L 0 -75.9375 C 0 -76.507812 0.351562 -76.796875 1.0625 -76.796875 Z M 13.625 -76.796875 "/></g></g></g><g fill="#000000" fill-opacity="1"><g transform="translate(110.699955, 130.900667)"><g><path d="M 36.484375 -14.296875 L 36.484375 0 L 1.0625 0 C 0.351562 0 0 -0.285156 0 -0.859375 L 0 -75.9375 C 0 -76.507812 0.351562 -76.796875 1.0625 -76.796875 L 36.484375 -76.796875 L 36.484375 -62.875 L 14.6875 -62.875 L 14.6875 -45.5 L 44.828125 -45.5 C 45.535156 -45.5 45.890625 -45.210938 45.890625 -44.640625 L 45.890625 -32.453125 C 45.890625 -31.867188 45.535156 -31.578125 44.828125 -31.578125 L 14.6875 -31.578125 L 14.6875 -14.296875 Z M 36.484375 -14.296875 "/></g></g></g><g fill="#000000" fill-opacity="1"><g transform="translate(163.397821, 130.900667)"><g><path d="M 40.03125 -62.5 L 54.8125 -62.5 L 30.8125 -0.484375 C 30.6875 -0.160156 30.398438 0 29.953125 0 C 29.503906 0 29.179688 -0.160156 28.984375 -0.484375 L 0.09375 -75.640625 C -0.03125 -75.960938 -0.015625 -76.234375 0.140625 -76.453125 C 0.304688 -76.679688 0.578125 -76.796875 0.953125 -76.796875 L 14.015625 -76.796875 C 14.585938 -76.796875 14.90625 -76.601562 14.96875 -76.21875 L 29.953125 -34.375 Z M 40.03125 -62.5 "/></g></g></g><g fill="#000000" fill-opacity="1"><g transform="translate(225.502535, 130.900667)"><g><path d="M 36.484375 -14.296875 L 36.484375 0 L 1.0625 0 C 0.351562 0 0 -0.285156 0 -0.859375 L 0 -75.9375 C 0 -76.507812 0.351562 -76.796875 1.0625 -76.796875 L 36.484375 -76.796875 L 36.484375 -62.875 L 14.6875 -62.875 L 14.6875 -45.5 L 44.828125 -45.5 C 45.535156 -45.5 45.890625 -45.210938 45.890625 -44.640625 L 45.890625 -32.453125 C 45.890625 -31.867188 45.535156 -31.578125 44.828125 -31.578125 L 14.6875 -31.578125 L 14.6875 -14.296875 Z M 36.484375 -14.296875 "/></g></g></g><g fill="#000000" fill-opacity="1"><g transform="translate(278.200389, 130.900667)"><g><path d="M 41.46875 -14.296875 C 42.175781 -14.296875 42.53125 -13.976562 42.53125 -13.34375 L 42.53125 -0.859375 C 42.53125 -0.285156 42.175781 0 41.46875 0 L 1.0625 0 C 0.351562 0 0 -0.285156 0 -0.859375 L 0 -14.296875 Z M 14.6875 -28.984375 L 0 -28.984375 L 0 -75.9375 C 0 -76.507812 0.351562 -76.796875 1.0625 -76.796875 L 13.734375 -76.796875 C 14.367188 -76.796875 14.6875 -76.507812 14.6875 -75.9375 Z M 14.6875 -28.984375 "/></g></g></g><g fill="#000000" fill-opacity="1"><g transform="translate(327.442666, 130.900667)"><g><path d="M 44.15625 -38.203125 C 44.15625 -36.222656 43.46875 -34.53125 42.09375 -33.125 C 40.71875 -31.71875 39.003906 -31.015625 36.953125 -31.015625 C 34.972656 -31.015625 33.28125 -31.71875 31.875 -33.125 C 30.46875 -34.53125 29.765625 -36.222656 29.765625 -38.203125 C 29.765625 -40.253906 30.46875 -41.984375 31.875 -43.390625 C 33.28125 -44.796875 34.972656 -45.5 36.953125 -45.5 C 39.003906 -45.5 40.71875 -44.796875 42.09375 -43.390625 C 43.46875 -41.984375 44.15625 -40.253906 44.15625 -38.203125 Z M 73.921875 -38.5 C 73.921875 -33.695312 73.148438 -29.003906 71.609375 -24.421875 C 70.078125 -19.847656 67.773438 -15.722656 64.703125 -12.046875 C 61.628906 -8.367188 57.785156 -5.441406 53.171875 -3.265625 C 48.566406 -1.085938 43.195312 0 37.0625 0 C 30.851562 0 25.425781 -1.085938 20.78125 -3.265625 C 16.144531 -5.441406 12.289062 -8.367188 9.21875 -12.046875 C 6.144531 -15.722656 3.835938 -19.847656 2.296875 -24.421875 C 0.765625 -29.003906 0 -33.695312 0 -38.5 C 0 -43.300781 0.765625 -47.972656 2.296875 -52.515625 C 3.835938 -57.054688 6.144531 -61.148438 9.21875 -64.796875 C 12.289062 -68.441406 16.144531 -71.351562 20.78125 -73.53125 C 25.425781 -75.707031 30.851562 -76.796875 37.0625 -76.796875 C 43.195312 -76.796875 48.566406 -75.707031 53.171875 -73.53125 C 57.785156 -71.351562 61.628906 -68.441406 64.703125 -64.796875 C 67.773438 -61.148438 70.078125 -57.054688 71.609375 -52.515625 C 73.148438 -47.972656 73.921875 -43.300781 73.921875 -38.5 Z M 59.515625 -38.203125 C 59.515625 -41.335938 59.035156 -44.394531 58.078125 -47.375 C 57.117188 -50.351562 55.710938 -53.039062 53.859375 -55.4375 C 52.003906 -57.84375 49.664062 -59.75 46.84375 -61.15625 C 44.03125 -62.5625 40.769531 -63.265625 37.0625 -63.265625 C 33.28125 -63.265625 29.976562 -62.5625 27.15625 -61.15625 C 24.34375 -59.75 21.992188 -57.84375 20.109375 -55.4375 C 18.222656 -53.039062 16.816406 -50.351562 15.890625 -47.375 C 14.960938 -44.394531 14.5 -41.335938 14.5 -38.203125 C 14.5 -35.128906 14.960938 -32.117188 15.890625 -29.171875 C 16.816406 -26.234375 18.222656 -23.578125 20.109375 -21.203125 C 21.992188 -18.835938 24.34375 -16.953125 27.15625 -15.546875 C 29.976562 -14.140625 33.28125 -13.4375 37.0625 -13.4375 C 40.769531 -13.4375 44.03125 -14.140625 46.84375 -15.546875 C 49.664062 -16.953125 52.003906 -18.835938 53.859375 -21.203125 C 55.710938 -23.578125 57.117188 -26.234375 58.078125 -29.171875 C 59.035156 -32.117188 59.515625 -35.128906 59.515625 -38.203125 Z M 59.515625 -38.203125 "/></g></g></g><g fill="#000000" fill-opacity="1"><g transform="translate(409.512913, 130.900667)"><g><path d="M 25.828125 -76.796875 C 26.460938 -76.796875 27.738281 -76.710938 29.65625 -76.546875 C 31.582031 -76.390625 33.773438 -75.941406 36.234375 -75.203125 C 38.703125 -74.472656 41.117188 -73.289062 43.484375 -71.65625 C 45.859375 -70.03125 47.828125 -67.773438 49.390625 -64.890625 C 50.960938 -62.015625 51.75 -58.304688 51.75 -53.765625 C 51.75 -49.984375 51.171875 -46.796875 50.015625 -44.203125 C 48.859375 -41.609375 47.335938 -39.476562 45.453125 -37.8125 C 43.566406 -36.15625 41.566406 -34.847656 39.453125 -33.890625 C 37.335938 -32.929688 35.304688 -32.242188 33.359375 -31.828125 C 31.410156 -31.410156 29.742188 -31.148438 28.359375 -31.046875 C 26.984375 -30.953125 26.140625 -30.90625 25.828125 -30.90625 L 14.40625 -30.90625 L 14.40625 -0.859375 C 14.40625 -0.285156 14.082031 0 13.4375 0 L 0.953125 0 C 0.316406 0 0 -0.285156 0 -0.859375 L 0 -45.125 L 25.828125 -45.125 C 26.335938 -45.125 27.179688 -45.1875 28.359375 -45.3125 C 29.546875 -45.4375 30.828125 -45.753906 32.203125 -46.265625 C 33.578125 -46.785156 34.742188 -47.632812 35.703125 -48.8125 C 36.671875 -50 37.15625 -51.648438 37.15625 -53.765625 C 37.15625 -55.867188 36.65625 -57.53125 35.65625 -58.75 C 34.664062 -59.96875 33.484375 -60.847656 32.109375 -61.390625 C 30.734375 -61.929688 29.453125 -62.28125 28.265625 -62.4375 C 27.085938 -62.601562 26.273438 -62.6875 25.828125 -62.6875 L 0 -62.6875 L 0 -75.9375 C 0 -76.507812 0.316406 -76.796875 0.953125 -76.796875 Z M 25.828125 -76.796875 "/></g></g></g><g fill="#000000" fill-opacity="1"><g transform="translate(468.354036, 130.900667)"><g><path d="M 36.484375 -14.296875 L 36.484375 0 L 1.0625 0 C 0.351562 0 0 -0.285156 0 -0.859375 L 0 -75.9375 C 0 -76.507812 0.351562 -76.796875 1.0625 -76.796875 L 36.484375 -76.796875 L 36.484375 -62.875 L 14.6875 -62.875 L 14.6875 -45.5 L 44.828125 -45.5 C 45.535156 -45.5 45.890625 -45.210938 45.890625 -44.640625 L 45.890625 -32.453125 C 45.890625 -31.867188 45.535156 -31.578125 44.828125 -31.578125 L 14.6875 -31.578125 L 14.6875 -14.296875 Z M 36.484375 -14.296875 "/></g></g></g><g fill="#000000" fill-opacity="1"><g transform="translate(521.051879, 130.900667)"><g><path d="M 52.421875 -1.25 C 52.546875 -0.925781 52.523438 -0.632812 52.359375 -0.375 C 52.203125 -0.125 51.929688 0 51.546875 0 L 37.828125 0 C 37.316406 0 36.992188 -0.191406 36.859375 -0.578125 L 22.84375 -31.015625 L 14.59375 -31.015625 L 14.59375 -0.859375 C 14.59375 -0.285156 14.238281 0 13.53125 0 L 0.953125 0 C 0.316406 0 0 -0.285156 0 -0.859375 L 0 -45.125 L 25.828125 -45.125 C 26.585938 -45.125 27.609375 -45.1875 28.890625 -45.3125 C 30.171875 -45.4375 31.4375 -45.785156 32.6875 -46.359375 C 33.9375 -46.941406 34.992188 -47.820312 35.859375 -49 C 36.722656 -50.1875 37.15625 -51.835938 37.15625 -53.953125 C 37.15625 -56.066406 36.691406 -57.726562 35.765625 -58.9375 C 34.835938 -60.15625 33.703125 -61.035156 32.359375 -61.578125 C 31.015625 -62.128906 29.734375 -62.484375 28.515625 -62.640625 C 27.296875 -62.796875 26.398438 -62.875 25.828125 -62.875 L 0 -62.875 L 0 -75.9375 C 0 -76.507812 0.316406 -76.796875 0.953125 -76.796875 L 25.828125 -76.796875 C 26.722656 -76.796875 28.160156 -76.710938 30.140625 -76.546875 C 32.128906 -76.390625 34.351562 -75.957031 36.8125 -75.25 C 39.28125 -74.550781 41.648438 -73.398438 43.921875 -71.796875 C 46.191406 -70.203125 48.0625 -67.960938 49.53125 -65.078125 C 51.007812 -62.203125 51.75 -58.492188 51.75 -53.953125 C 51.75 -50.046875 51.109375 -46.734375 49.828125 -44.015625 C 48.546875 -41.296875 46.832031 -39.070312 44.6875 -37.34375 C 42.539062 -35.613281 40.1875 -34.269531 37.625 -33.3125 C 40.0625 -27.875 42.539062 -22.5 45.0625 -17.1875 C 47.59375 -11.875 50.046875 -6.5625 52.421875 -1.25 Z M 52.421875 -1.25 "/></g></g></g><g clip-path="url(#7a39ab29e2)"><path fill="#545454" d="M 650.855469 4.386719 L 687.625 4.386719 L 687.625 158.503906 L 650.855469 158.503906 Z M 650.855469 4.386719 " fill-opacity="1" fill-rule="nonzero"/></g><g clip-path="url(#6aab881c03)"><path fill="#a6a6a6" d="M 710.613281 4.386719 L 747.386719 4.386719 L 747.386719 158.503906 L 710.613281 158.503906 Z M 710.613281 4.386719 " fill-opacity="1" fill-rule="nonzero"/></g></svg>